<svg width="462" height="387" viewBox="0 0 462 387" fill="none" xmlns="http://www.w3.org/2000/svg">
<path d="M444 264C426 297.333 399.667 318.333 365 327C330.333 335.667 302.167 348.667 280.5 366C258.833 383.333 233.833 389.833 205.5 385.5C177.167 381.167 152.5 370.167 131.5 352.5C110.5 334.833 81.8333 317 45.5 299C9.16668 281 -5.33333 253.5 2.00001 216.5C9.33334 179.5 23.1667 147.5 43.5 120.5C63.8333 93.5 85.1667 65 107.5 35C129.833 5 159.167 -5.83333 195.5 2.5C231.833 10.8333 266.333 18.8333 299 26.5C331.667 34.1667 363.667 48.5 395 69.5C426.333 90.5 446.833 119.833 456.5 157.5C466.167 195.167 462 230.667 444 264Z" fill="url(#paint0_linear)"/>
<defs>
<linearGradient id="paint0_linear" x1="0.152679" y1="-0.217392" x2="0.152679" y2="386.8" gradientUnits="userSpaceOnUse">
<stop stop-color="#F09BB4"/>
<stop offset="1" stop-color="#E3C4F2"/>
</linearGradient>
</defs>
</svg>
