<svg width="661" height="543" viewBox="0 0 661 543" fill="none" xmlns="http://www.w3.org/2000/svg">
<path d="M661 540.432H554.676" stroke="#3F3D56" stroke-width="3.17788" stroke-miterlimit="10"/>
<path d="M45.7304 93.6015H492.933C499.795 93.6015 505.357 99.9267 505.357 107.729V442.91C505.357 450.713 499.795 457.038 492.933 457.038H45.7304C38.8687 457.038 33.3062 450.713 33.3062 442.91V107.729C33.3062 99.9267 38.8687 93.6015 45.7304 93.6015Z" fill="#F2F2F2"/>
<path d="M60.1418 70.659H507.345C514.206 70.659 519.769 76.9843 519.769 84.7869V419.968C519.769 427.77 514.206 434.095 507.345 434.095H60.1418C53.2801 434.095 47.7175 427.77 47.7175 419.968V84.7869C47.7175 76.9843 53.2801 70.659 60.1418 70.659Z" stroke="#3F3D56" stroke-width="3.17788" stroke-miterlimit="10"/>
<path d="M519.769 105.503H47.7175" stroke="#3F3D56" stroke-width="3.17788" stroke-miterlimit="10"/>
<path opacity="0.3" d="M113.428 187.192H233.084C235.593 187.192 237.627 189.504 237.627 192.357V204.604C237.627 207.457 235.593 209.77 233.084 209.77H113.428C110.919 209.77 108.886 207.457 108.886 204.604V192.357C108.886 189.504 110.919 187.192 113.428 187.192Z" fill="#6C63FF"/>
<path opacity="0.3" d="M88.7691 249.828H257.744C260.252 249.828 262.286 252.141 262.286 254.994V262.871C262.286 265.723 260.252 268.036 257.744 268.036H88.7691C86.2602 268.036 84.2263 265.723 84.2263 262.871V254.994C84.2263 252.141 86.2602 249.828 88.7691 249.828Z" fill="#6C63FF"/>
<path opacity="0.3" d="M88.7691 299.354H257.744C260.252 299.354 262.286 301.667 262.286 304.52V312.397C262.286 315.25 260.252 317.563 257.744 317.563H88.7691C86.2602 317.563 84.2263 315.25 84.2263 312.397V304.52C84.2263 301.667 86.2602 299.354 88.7691 299.354Z" fill="#6C63FF"/>
<path opacity="0.3" d="M88.7691 348.881H257.744C260.252 348.881 262.286 351.194 262.286 354.047V361.923C262.286 364.776 260.252 367.089 257.744 367.089H88.7691C86.2602 367.089 84.2263 364.776 84.2263 361.923V354.047C84.2263 351.194 86.2602 348.881 88.7691 348.881Z" fill="#6C63FF"/>
<path d="M107.023 179.908H226.679C229.188 179.908 231.222 182.221 231.222 185.074V197.321C231.222 200.174 229.188 202.487 226.679 202.487H107.023C104.515 202.487 102.481 200.174 102.481 197.321V185.074C102.481 182.221 104.515 179.908 107.023 179.908Z" stroke="#3F3D56" stroke-width="3.17788" stroke-miterlimit="10"/>
<path d="M82.3639 242.545H251.338C253.847 242.545 255.881 244.858 255.881 247.71V255.587C255.881 258.44 253.847 260.753 251.338 260.753H82.3639C79.855 260.753 77.8211 258.44 77.8211 255.587V247.71C77.8211 244.858 79.855 242.545 82.3639 242.545Z" stroke="#3F3D56" stroke-width="3.17788" stroke-miterlimit="10"/>
<path d="M82.3639 292.071H251.338C253.847 292.071 255.881 294.384 255.881 297.237V305.114C255.881 307.967 253.847 310.279 251.338 310.279H82.3639C79.855 310.279 77.8211 307.967 77.8211 305.114V297.237C77.8211 294.384 79.855 292.071 82.3639 292.071Z" stroke="#3F3D56" stroke-width="3.17788" stroke-miterlimit="10"/>
<path d="M82.3639 341.598H251.338C253.847 341.598 255.881 343.91 255.881 346.763V354.64C255.881 357.493 253.847 359.806 251.338 359.806H82.3639C79.855 359.806 77.8211 357.493 77.8211 354.64V346.763C77.8211 343.91 79.855 341.598 82.3639 341.598Z" stroke="#3F3D56" stroke-width="3.17788" stroke-miterlimit="10"/>
<path opacity="0.3" d="M483.901 103.434C478.595 103.434 474.293 98.5427 474.293 92.509C474.293 86.4753 478.595 81.584 483.901 81.584C489.207 81.584 493.508 86.4753 493.508 92.509C493.508 98.5427 489.207 103.434 483.901 103.434Z" fill="#6C63FF"/>
<path opacity="0.3" d="M457 103.434C451.693 103.434 447.392 98.5427 447.392 92.509C447.392 86.4753 451.693 81.584 457 81.584C462.306 81.584 466.607 86.4753 466.607 92.509C466.607 98.5427 462.306 103.434 457 103.434Z" fill="#6C63FF"/>
<path opacity="0.3" d="M430.098 103.434C424.792 103.434 420.491 98.5427 420.491 92.509C420.491 86.4753 424.792 81.584 430.098 81.584C435.404 81.584 439.706 86.4753 439.706 92.509C439.706 98.5427 435.404 103.434 430.098 103.434Z" fill="#6C63FF"/>
<path d="M480.058 99.0639C474.752 99.0639 470.45 94.1726 470.45 88.1389C470.45 82.1053 474.752 77.214 480.058 77.214C485.364 77.214 489.665 82.1053 489.665 88.1389C489.665 94.1726 485.364 99.0639 480.058 99.0639Z" stroke="#3F3D56" stroke-width="3.17788" stroke-miterlimit="10"/>
<path d="M453.156 99.0639C447.85 99.0639 443.549 94.1726 443.549 88.1389C443.549 82.1053 447.85 77.214 453.156 77.214C458.462 77.214 462.764 82.1053 462.764 88.1389C462.764 94.1726 458.462 99.0639 453.156 99.0639Z" stroke="#3F3D56" stroke-width="3.17788" stroke-miterlimit="10"/>
<path d="M426.255 99.0639C420.949 99.0639 416.648 94.1726 416.648 88.1389C416.648 82.1053 420.949 77.214 426.255 77.214C431.561 77.214 435.863 82.1053 435.863 88.1389C435.863 94.1726 431.561 99.0639 426.255 99.0639Z" stroke="#3F3D56" stroke-width="3.17788" stroke-miterlimit="10"/>
<path d="M370.625 418.801C372.234 410.375 372.66 398.867 372.119 390.861C372.119 390.861 380.252 350.231 386.652 346.44L386.654 346.442C386.752 346.585 389.858 351.215 390.252 365.542C390.652 380.096 395.183 389.647 395.183 389.647C395.183 389.647 393.717 407.788 394.555 418.8L370.625 418.801Z" fill="#6C63FF"/>
<path d="M311.459 160.244H459.067C461.067 160.244 463.047 160.691 464.894 161.561C466.741 162.432 468.42 163.707 469.834 165.315C471.247 166.922 472.369 168.831 473.134 170.932C473.899 173.032 474.293 175.283 474.293 177.557V401.487C474.293 403.761 473.899 406.012 473.134 408.113C472.369 410.213 471.247 412.122 469.834 413.73C468.42 415.337 466.741 416.613 464.894 417.483C463.047 418.353 461.067 418.801 459.067 418.801H407.279C409.009 410.644 411.159 397.904 408.981 389.047L408.982 389.041L408.981 389.045C408.879 388.631 408.771 388.223 408.65 387.828C407.155 382.079 406.656 376.055 407.182 370.09C406.221 364.994 406.221 359.723 407.182 354.626C408.782 346.137 409.902 337.798 409.902 337.798C409.902 337.798 410.784 326.58 410.014 319.703C409.997 319.552 409.977 319.409 409.959 319.262C410.23 319.192 410.383 319.152 410.383 319.152C410.383 319.152 408.116 307.478 407.316 300.049C407.128 298.296 406.879 296.072 406.61 293.702C407.348 293.562 408.075 293.353 408.783 293.075C415.982 290.195 418.249 264.119 418.249 264.119V255.856C418.249 255.856 420.649 243.197 412.249 237.588C404.161 232.186 400.932 230.708 400.704 230.606C400.642 230.556 400.582 230.51 400.519 230.455C399.605 229.639 398.881 228.58 398.412 227.371C398.401 227.163 398.398 226.956 398.404 226.751C398.541 223.789 400.354 221.095 402.074 218.745C403.542 216.74 405.009 214.735 406.477 212.731C406.98 212.134 407.366 211.423 407.611 210.644C407.704 210.215 407.744 209.773 407.73 209.33C407.732 209.167 407.731 209.003 407.728 208.84C407.704 207.346 407.668 205.851 407.621 204.357C407.579 203.052 407.29 201.405 406.166 201.136C405.582 200.997 404.808 201.24 404.499 200.659C404.395 200.419 404.368 200.146 404.424 199.886C404.428 199.906 404.429 199.926 404.433 199.945C404.437 199.921 404.441 199.896 404.445 199.872C404.676 198.826 404.816 197.756 404.862 196.678C404.874 196.191 404.813 195.706 404.681 195.243C404.03 193.076 401.787 192.187 399.806 191.778C397.824 191.369 395.6 191.018 394.356 189.216C394.023 188.618 393.662 188.041 393.275 187.488C392.704 186.898 392.003 186.496 391.247 186.325C388.787 185.617 386.189 185.879 383.877 187.068C382.919 187.566 381.956 188.235 380.904 188.16C379.812 188.081 378.879 187.207 377.801 186.994C376.059 186.651 374.394 188.135 373.536 189.892C372.991 191.01 372.718 192.273 372.746 193.55C372.726 194.822 373.13 196.056 373.876 197.003C374.626 197.908 375.744 198.529 376.055 199.72C376.182 200.205 376.153 200.727 376.265 201.216C376.279 201.277 376.302 201.334 376.32 201.394C376.299 201.424 376.277 201.453 376.257 201.483C374.946 203.448 374.067 205.74 373.694 208.17C373.32 210.599 373.464 213.095 374.111 215.448C374.759 217.802 375.892 219.945 377.417 221.699C378.941 223.454 380.812 224.768 382.874 225.532C382.879 225.685 382.885 225.839 382.884 225.993C382.923 226.949 382.78 227.903 382.466 228.791C382.153 229.678 381.675 230.479 381.065 231.139L369.186 236.678C369.186 236.678 362.034 235.693 359.453 247.829C359.04 249.846 358.891 251.922 359.011 253.988C359.105 255.818 358.887 259.04 357.053 263.209C354.12 269.88 354.787 285.192 360.786 286.708C366.469 288.144 368.68 287.541 368.898 287.473L368.911 287.741C368.817 290.614 367.918 315.395 364.653 318.393C363.75 319.223 363.922 319.783 364.663 320.16L364.661 320.163C364.661 320.163 364.655 320.322 364.641 320.608C364.543 322.421 364.039 329.323 361.854 333.25C359.32 337.798 359.586 364.027 359.586 364.027L357.854 379.491C357.854 379.491 358.92 389.042 357.854 390.709C357.248 391.654 356.515 406.298 355.993 418.8H311.459C307.421 418.8 303.548 416.976 300.693 413.729C297.837 410.483 296.233 406.079 296.233 401.487V177.557C296.233 175.283 296.627 173.032 297.392 170.932C298.157 168.831 299.279 166.922 300.693 165.315C302.106 163.707 303.785 162.432 305.632 161.561C307.479 160.691 309.459 160.244 311.459 160.244V160.244Z" fill="#6C63FF"/>
<path d="M326.831 140.579H474.439C482.848 140.579 489.665 148.33 489.665 157.892V381.822C489.665 391.384 482.848 399.136 474.439 399.136H326.831C318.422 399.136 311.605 391.384 311.605 381.822V157.892C311.605 148.33 318.422 140.579 326.831 140.579Z" stroke="#3F3D56" stroke-width="3.17788" stroke-miterlimit="10"/>
<path d="M596.422 234.808C596.422 234.808 602.394 232.8 603.675 234.985C604.956 237.17 601.928 253.01 601.928 253.01L588.769 253.919L593.361 240.732L596.422 234.808Z" fill="#2F2E41"/>
<path d="M642.461 364.881C642.461 364.881 630.487 394.773 639.709 393.834C648.93 392.895 652.508 364.881 652.508 364.881H642.461Z" fill="#A0616A"/>
<path d="M564.149 361.767C564.149 361.767 569.402 394.066 560.655 390.616C551.907 387.166 554.4 359 554.4 359L564.149 361.767Z" fill="#A0616A"/>
<path d="M598.969 227.313C598.969 227.313 599.107 242.338 594.015 243.12C588.922 243.903 596.905 251.885 596.905 251.885L605.989 253.919L619.064 252.824L624.844 244.372C624.844 244.372 614.659 238.895 619.064 221.836L598.969 227.313Z" fill="#A0616A"/>
<path opacity="0.1" d="M598.969 227.313C598.969 227.313 599.107 242.338 594.015 243.12C588.922 243.903 596.905 251.885 596.905 251.885L605.989 253.919L619.064 252.824L624.844 244.372C624.844 244.372 614.659 238.895 619.064 221.836L598.969 227.313Z" fill="black"/>
<path d="M575.572 354.395C575.572 354.395 569.103 370.202 574.196 419.814C574.196 419.814 572.682 437.342 573.92 440.629C575.159 443.915 585.344 488.519 585.344 488.519C585.344 488.519 598.419 491.806 600.208 481.946C600.208 481.946 598.419 467.861 598.556 465.67C598.694 463.478 595.666 439.533 595.666 439.533L601.86 393.208L606.539 434.995C606.539 434.995 606.539 447.046 608.053 449.706C609.567 452.367 608.053 505.891 608.053 505.891C608.053 505.891 603.787 514.029 610.255 514.186C616.724 514.342 622.504 514.029 623.055 508.865C623.606 503.7 623.881 498.535 625.257 495.405C626.633 492.275 628.423 456.436 628.01 443.915C627.597 431.395 637.094 367.072 634.066 360.342C631.038 353.612 575.572 354.395 575.572 354.395Z" fill="#2F2E41"/>
<path d="M605.989 232.948C596.867 232.948 589.473 224.539 589.473 214.167C589.473 203.795 596.867 195.387 605.989 195.387C615.11 195.387 622.504 203.795 622.504 214.167C622.504 224.539 615.11 232.948 605.989 232.948Z" fill="#A0616A"/>
<path d="M622.505 244.685C622.505 244.685 612.457 253.137 597.868 246.407C597.868 246.407 593.051 243.746 593.464 239.677C593.877 235.608 583.417 272.387 583.417 272.387L572.819 336.397L573.37 362.533C573.37 362.533 578.049 359.873 592.638 365.82C607.227 371.767 631.038 359.09 631.038 359.09L630.212 291.95L629.386 252.824L627.184 244.216C627.184 244.216 626.083 241.868 622.505 244.685Z" fill="#F2F2F2"/>
<path d="M598.51 234.179C598.51 234.179 596.079 233.73 593.739 237.956C591.4 242.181 585.894 244.842 585.894 244.842C585.894 244.842 572.544 245.781 570.617 253.919C568.69 262.057 563.873 273.169 561.533 293.671C559.194 314.173 554.514 346.883 553.826 349.543C553.138 352.204 554.789 360.342 552.863 362.846C550.936 365.35 566.488 365.35 566.488 365.35C566.488 365.35 567.864 352.517 568.828 352.517C569.791 352.517 569.516 361.125 568.553 367.385C567.589 373.645 575.572 367.385 575.572 367.385C575.572 367.385 581.765 338.745 587.684 312.921C593.602 287.098 597.042 272.856 595.941 267.066C594.84 261.275 591.812 244.685 594.015 243.12C596.217 241.555 598.51 234.179 598.51 234.179Z" fill="#2F2E41"/>
<path d="M618.358 234.165C618.358 234.165 621.954 236.391 631.038 243.746C640.121 251.102 646.315 256.736 646.315 256.736C646.315 256.736 649.893 259.866 652.095 278.49C654.297 297.114 659.252 345.318 657.325 351.421C655.399 357.525 654.71 361.125 655.399 364.724C656.087 368.324 640.947 368.167 640.672 367.385C640.397 366.602 641.085 352.36 640.397 352.047C639.708 351.734 635.992 360.499 635.304 367.854C634.616 375.21 626.633 381.001 624.844 381.001C623.055 381.001 613.834 338.588 613.696 309.635C613.558 280.681 616.724 256.267 619.064 252.824C621.403 249.381 618.358 234.165 618.358 234.165Z" fill="#2F2E41"/>
<path d="M594.152 489.928C594.152 489.928 593.051 486.485 589.197 487.58C585.344 488.676 582.729 484.763 582.729 484.763C582.729 484.763 580.664 484.45 582.041 487.424C583.417 490.397 584.518 492.432 584.518 492.432C584.518 492.432 576.26 513.873 581.628 519.038C586.995 524.202 593.189 521.072 593.189 521.072C593.189 521.072 599.245 516.22 598.969 503.387C598.969 503.387 599.245 499.318 602.548 492.745C605.851 486.172 608.328 476.155 604.337 474.277C600.346 472.399 599.318 472.329 599.318 472.329C599.318 472.329 601.186 482.043 596.362 485.438L594.152 489.928Z" fill="#3F3D56"/>
<path d="M619.752 514.186C619.752 514.186 623.055 507.143 617.55 506.361C612.044 505.578 606.126 505.109 606.402 508.395C606.677 511.682 607.365 516.69 607.365 516.69L606.402 520.29C606.402 520.29 606.126 529.21 605.163 530.306C604.199 531.401 598.969 540.792 610.118 540.792C621.266 540.792 624.569 539.383 623.606 536.41C622.642 533.436 622.367 518.725 622.367 518.725L619.752 514.186Z" fill="#3F3D56"/>
<path d="M611.219 199.143C611.219 199.143 603.511 201.49 599.52 202.429C595.529 203.368 595.941 200.708 595.941 200.708C595.941 200.708 590.711 201.49 590.987 200.864C591.262 200.238 588.785 196.952 591.675 193.195C594.565 189.439 593.739 186.622 593.739 186.622H596.217L596.905 185.527H600.759C600.759 185.527 603.649 184.275 611.219 185.527C618.788 186.779 629.111 187.092 629.937 192.256C630.762 197.421 635.029 203.838 633.515 206.811C632.001 209.785 623.33 221.992 622.504 227.157C621.679 232.322 617.823 233.469 617.962 230.235C618.1 227 621.954 215.732 618.651 215.263C615.348 214.793 609.705 205.246 611.219 199.143Z" fill="#2F2E41"/>
<path d="M62.2052 5.98669C64.9354 6.16206 67.5688 7.19879 69.8099 8.98065C72.051 10.7625 73.8113 13.219 74.8935 16.0748C78.0662 24.7957 73.9811 35.0396 67.8486 41.399C61.7161 47.7584 53.8385 51.3933 46.6811 56.1712C37.0675 62.5888 28.4289 71.4973 23.6186 82.9329C18.8084 94.3684 18.2967 108.534 23.9509 119.459C29.199 129.599 38.7418 135.667 47.8431 141.264" stroke="#3F3D56" stroke-width="3.17788" stroke-miterlimit="10"/>
<path d="M54.1225 12.9369C47.932 12.9369 42.9137 10.1652 42.9137 6.74607C42.9137 3.32698 47.932 0.555267 54.1225 0.555267C60.3129 0.555267 65.3313 3.32698 65.3313 6.74607C65.3313 10.1652 60.3129 12.9369 54.1225 12.9369Z" fill="#6C63FF"/>
<path d="M45.1556 53.7233C38.9651 53.7233 33.9468 50.9516 33.9468 47.5325C33.9468 44.1135 38.9651 41.3417 45.1556 41.3417C51.346 41.3417 56.3644 44.1135 56.3644 47.5325C56.3644 50.9516 51.346 53.7233 45.1556 53.7233Z" fill="#6C63FF"/>
<path d="M65.6517 60.2783C59.4612 60.2783 54.4429 57.5066 54.4429 54.0875C54.4429 50.6684 59.4612 47.8967 65.6517 47.8967C71.8422 47.8967 76.8605 50.6684 76.8605 54.0875C76.8605 57.5066 71.8422 60.2783 65.6517 60.2783Z" fill="#6C63FF"/>
<path d="M33.6264 94.5097C27.4359 94.5097 22.4176 91.738 22.4176 88.3189C22.4176 84.8998 27.4359 82.1281 33.6264 82.1281C39.8168 82.1281 44.8352 84.8998 44.8352 88.3189C44.8352 91.738 39.8168 94.5097 33.6264 94.5097Z" fill="#6C63FF"/>
<path d="M11.2088 94.5097C5.01834 94.5097 -2.09808e-05 91.738 -2.09808e-05 88.3189C-2.09808e-05 84.8998 5.01834 82.1281 11.2088 82.1281C17.3992 82.1281 22.4176 84.8998 22.4176 88.3189C22.4176 91.738 17.3992 94.5097 11.2088 94.5097Z" fill="#6C63FF"/>
</svg>
