<svg width="553" height="440" viewBox="0 0 553 440" fill="none" xmlns="http://www.w3.org/2000/svg">
<path d="M531.947 294.244C510.374 331.366 478.814 354.752 437.266 364.404C395.718 374.056 361.961 388.533 335.994 407.836C310.026 427.139 280.064 434.378 246.107 429.552C212.15 424.727 182.587 412.477 157.419 392.802C132.25 373.127 97.8935 353.268 54.3483 333.222C10.8032 313.176 -6.57493 282.551 2.21401 241.346C11.0029 200.141 27.5821 164.505 51.9514 134.436C76.3206 104.368 101.889 72.629 128.655 39.2197C155.421 5.81032 190.577 -6.25417 234.122 3.02621C277.667 12.3066 319.015 21.2157 358.166 29.7537C397.317 38.2917 435.669 54.2539 473.221 77.6405C510.773 101.027 535.342 133.694 546.928 175.641C558.514 217.589 553.52 257.123 531.947 294.244Z" fill="url(#paint0_linear)"/>
<g clip-path="url(#clip0)">
<path d="M542 438.028H454.818" stroke="#3F3D56" stroke-width="3.17788" stroke-miterlimit="10"/>
<path d="M37.4975 94.8818H404.19C409.817 94.8818 414.377 99.7393 414.377 105.731V363.135C414.377 369.128 409.817 373.985 404.19 373.985H37.4975C31.8712 373.985 27.3101 369.128 27.3101 363.135V105.731C27.3101 99.7393 31.8712 94.8818 37.4975 94.8818Z" fill="#F2F2F2"/>
<path d="M49.3145 77.263H416.008C421.633 77.263 426.195 82.1205 426.195 88.1126V345.517C426.195 351.508 421.633 356.366 416.008 356.366H49.3145C43.6881 356.366 39.1269 351.508 39.1269 345.517V88.1126C39.1269 82.1205 43.6881 77.263 49.3145 77.263Z" stroke="#3F3D56" stroke-width="3.17788" stroke-miterlimit="10"/>
<path d="M426.195 104.022H39.1269" stroke="#3F3D56" stroke-width="3.17788" stroke-miterlimit="10"/>
<path opacity="0.3" d="M93.0075 166.755H191.122C193.179 166.755 194.847 168.531 194.847 170.722V180.127C194.847 182.318 193.179 184.094 191.122 184.094H93.0075C90.9502 184.094 89.2832 182.318 89.2832 180.127V170.722C89.2832 168.531 90.9502 166.755 93.0075 166.755Z" fill="#6C63FF"/>
<path opacity="0.3" d="M72.788 214.857H211.342C213.399 214.857 215.067 216.633 215.067 218.824V224.873C215.067 227.064 213.399 228.84 211.342 228.84H72.788C70.7307 228.84 69.063 227.064 69.063 224.873V218.824C69.063 216.633 70.7307 214.857 72.788 214.857Z" fill="#6C63FF"/>
<path opacity="0.3" d="M72.788 252.891H211.342C213.399 252.891 215.067 254.667 215.067 256.858V262.907C215.067 265.098 213.399 266.874 211.342 266.874H72.788C70.7307 266.874 69.063 265.098 69.063 262.907V256.858C69.063 254.667 70.7307 252.891 72.788 252.891Z" fill="#6C63FF"/>
<path opacity="0.3" d="M72.788 290.925H211.342C213.399 290.925 215.067 292.701 215.067 294.892V300.941C215.067 303.132 213.399 304.908 211.342 304.908H72.788C70.7307 304.908 69.063 303.132 69.063 300.941V294.892C69.063 292.701 70.7307 290.925 72.788 290.925Z" fill="#6C63FF"/>
<path d="M87.7556 161.161H185.87C187.927 161.161 189.595 162.938 189.595 165.129V174.534C189.595 176.725 187.927 178.501 185.87 178.501H87.7556C85.6991 178.501 84.0313 176.725 84.0313 174.534V165.129C84.0313 162.938 85.6991 161.161 87.7556 161.161Z" stroke="#3F3D56" stroke-width="3.17788" stroke-miterlimit="10"/>
<path d="M67.5359 209.264H206.09C208.147 209.264 209.815 211.04 209.815 213.23V219.28C209.815 221.471 208.147 223.247 206.09 223.247H67.5359C65.4787 223.247 63.8109 221.471 63.8109 219.28V213.23C63.8109 211.04 65.4787 209.264 67.5359 209.264Z" stroke="#3F3D56" stroke-width="3.17788" stroke-miterlimit="10"/>
<path d="M67.5359 247.298H206.09C208.147 247.298 209.815 249.074 209.815 251.265V257.314C209.815 259.505 208.147 261.281 206.09 261.281H67.5359C65.4787 261.281 63.8109 259.505 63.8109 257.314V251.265C63.8109 249.074 65.4787 247.298 67.5359 247.298Z" stroke="#3F3D56" stroke-width="3.17788" stroke-miterlimit="10"/>
<path d="M67.5359 285.332H206.09C208.147 285.332 209.815 287.108 209.815 289.299V295.348C209.815 297.539 208.147 299.315 206.09 299.315H67.5359C65.4787 299.315 63.8109 297.539 63.8109 295.348V289.299C63.8109 287.108 65.4787 285.332 67.5359 285.332Z" stroke="#3F3D56" stroke-width="3.17788" stroke-miterlimit="10"/>
<path opacity="0.3" d="M396.784 102.433C392.433 102.433 388.906 98.6764 388.906 94.0428C388.906 89.4092 392.433 85.6529 396.784 85.6529C401.135 85.6529 404.662 89.4092 404.662 94.0428C404.662 98.6764 401.135 102.433 396.784 102.433Z" fill="#6C63FF"/>
<path opacity="0.3" d="M374.726 102.433C370.375 102.433 366.848 98.6764 366.848 94.0428C366.848 89.4092 370.375 85.6529 374.726 85.6529C379.077 85.6529 382.604 89.4092 382.604 94.0428C382.604 98.6764 379.077 102.433 374.726 102.433Z" fill="#6C63FF"/>
<path opacity="0.3" d="M352.667 102.433C348.317 102.433 344.79 98.6764 344.79 94.0428C344.79 89.4092 348.317 85.6529 352.667 85.6529C357.018 85.6529 360.546 89.4092 360.546 94.0428C360.546 98.6764 357.018 102.433 352.667 102.433Z" fill="#6C63FF"/>
<path d="M393.633 99.0767C389.282 99.0767 385.755 95.3204 385.755 90.6868C385.755 86.0532 389.282 82.2969 393.633 82.2969C397.984 82.2969 401.51 86.0532 401.51 90.6868C401.51 95.3204 397.984 99.0767 393.633 99.0767Z" stroke="#3F3D56" stroke-width="3.17788" stroke-miterlimit="10"/>
<path d="M371.574 99.0767C367.223 99.0767 363.697 95.3204 363.697 90.6868C363.697 86.0532 367.223 82.2969 371.574 82.2969C375.925 82.2969 379.452 86.0532 379.452 90.6868C379.452 95.3204 375.925 99.0767 371.574 99.0767Z" stroke="#3F3D56" stroke-width="3.17788" stroke-miterlimit="10"/>
<path d="M349.516 99.0767C345.165 99.0767 341.639 95.3204 341.639 90.6868C341.639 86.0532 345.165 82.2969 349.516 82.2969C353.867 82.2969 357.394 86.0532 357.394 90.6868C357.394 95.3204 353.867 99.0767 349.516 99.0767Z" stroke="#3F3D56" stroke-width="3.17788" stroke-miterlimit="10"/>
<path d="M303.901 344.621C305.221 338.15 305.57 329.312 305.126 323.164C305.126 323.164 311.795 291.962 317.043 289.051L317.045 289.052C317.125 289.162 319.672 292.718 319.995 303.72C320.323 314.897 324.038 322.232 324.038 322.232C324.038 322.232 322.836 336.163 323.523 344.62L303.901 344.621Z" fill="#6C63FF"/>
<path d="M255.387 146.06H376.421C378.061 146.06 379.685 146.404 381.199 147.072C382.714 147.741 384.09 148.72 385.25 149.955C386.408 151.189 387.328 152.655 387.956 154.268C388.583 155.881 388.906 157.61 388.906 159.356V331.324C388.906 333.071 388.583 334.799 387.956 336.413C387.328 338.025 386.408 339.491 385.25 340.726C384.09 341.96 382.714 342.94 381.199 343.608C379.685 344.277 378.061 344.621 376.421 344.621H333.956C335.375 338.356 337.138 328.573 335.352 321.771L335.353 321.766L335.352 321.769C335.268 321.451 335.18 321.138 335.081 320.835C333.855 316.42 333.446 311.794 333.877 307.213C333.089 303.299 333.089 299.251 333.877 295.337C335.189 288.818 336.107 282.414 336.107 282.414C336.107 282.414 336.83 273.799 336.199 268.518C336.185 268.402 336.169 268.292 336.154 268.179C336.376 268.125 336.502 268.095 336.502 268.095C336.502 268.095 334.643 259.13 333.987 253.424C333.833 252.078 333.628 250.37 333.408 248.55C334.013 248.443 334.609 248.282 335.19 248.069C341.093 245.857 342.952 225.832 342.952 225.832V219.486C342.952 219.486 344.919 209.765 338.032 205.457C331.4 201.309 328.752 200.174 328.565 200.095C328.514 200.057 328.465 200.021 328.413 199.979C327.664 199.353 327.07 198.539 326.686 197.611C326.677 197.451 326.674 197.292 326.679 197.135C326.792 194.86 328.278 192.791 329.689 190.986C330.892 189.447 332.095 187.907 333.299 186.368C333.711 185.91 334.028 185.364 334.229 184.765C334.305 184.436 334.338 184.096 334.326 183.756C334.328 183.631 334.327 183.505 334.325 183.38C334.305 182.233 334.275 181.084 334.237 179.937C334.202 178.935 333.965 177.67 333.044 177.464C332.565 177.357 331.93 177.543 331.677 177.097C331.592 176.913 331.57 176.703 331.615 176.504C331.619 176.519 331.62 176.534 331.623 176.549C331.626 176.53 331.629 176.511 331.633 176.493C331.822 175.69 331.937 174.868 331.975 174.04C331.984 173.666 331.934 173.294 331.826 172.938C331.292 171.274 329.453 170.591 327.829 170.277C326.204 169.963 324.38 169.693 323.36 168.31C323.087 167.85 322.791 167.407 322.474 166.982C322.005 166.529 321.431 166.221 320.811 166.089C318.794 165.546 316.663 165.747 314.768 166.66C313.982 167.042 313.192 167.556 312.33 167.499C311.434 167.438 310.669 166.767 309.785 166.603C308.357 166.34 306.992 167.479 306.288 168.829C305.841 169.687 305.617 170.657 305.64 171.638C305.624 172.615 305.955 173.562 306.567 174.29C307.182 174.985 308.099 175.461 308.354 176.376C308.458 176.749 308.434 177.149 308.526 177.525C308.537 177.572 308.556 177.616 308.571 177.662C308.554 177.685 308.536 177.707 308.519 177.73C307.444 179.239 306.724 180.999 306.418 182.865C306.111 184.731 306.229 186.648 306.76 188.455C307.291 190.262 308.22 191.908 309.471 193.255C310.72 194.603 312.254 195.612 313.945 196.199C313.949 196.316 313.954 196.434 313.953 196.553C313.985 197.287 313.868 198.019 313.611 198.701C313.354 199.383 312.962 199.998 312.462 200.505L302.721 204.758C302.721 204.758 296.857 204.002 294.741 213.322C294.402 214.871 294.28 216.465 294.378 218.052C294.455 219.457 294.276 221.931 292.773 225.133C290.368 230.256 290.915 242.015 295.834 243.179C300.494 244.282 302.306 243.819 302.485 243.767L302.496 243.972C302.419 246.179 301.682 265.209 299.004 267.512C298.264 268.149 298.405 268.579 299.013 268.869L299.011 268.871C299.011 268.871 299.006 268.993 298.995 269.213C298.914 270.605 298.501 275.905 296.709 278.921C294.632 282.414 294.85 302.557 294.85 302.557L293.429 314.432C293.429 314.432 294.304 321.767 293.429 323.047C292.933 323.773 292.332 335.019 291.904 344.62H255.387C252.076 344.62 248.9 343.219 246.559 340.726C244.217 338.233 242.902 334.851 242.902 331.324V159.356C242.902 157.61 243.225 155.881 243.852 154.268C244.48 152.655 245.4 151.189 246.559 149.955C247.718 148.72 249.095 147.741 250.609 147.072C252.123 146.404 253.747 146.06 255.387 146.06Z" fill="#6C63FF"/>
<path d="M267.992 130.958H389.026C395.921 130.958 401.51 136.911 401.51 144.254V316.222C401.51 323.566 395.921 329.519 389.026 329.519H267.992C261.096 329.519 255.507 323.566 255.507 316.222V144.254C255.507 136.911 261.096 130.958 267.992 130.958Z" stroke="#3F3D56" stroke-width="3.17788" stroke-miterlimit="10"/>
<path d="M489.048 203.322C489.048 203.322 493.945 201.78 494.995 203.458C496.046 205.136 493.563 217.3 493.563 217.3L482.773 217.999L486.538 207.872L489.048 203.322Z" fill="#2F2E41"/>
<path d="M526.799 303.212C526.799 303.212 516.98 326.168 524.542 325.447C532.103 324.726 535.037 303.212 535.037 303.212H526.799Z" fill="#A0616A"/>
<path d="M462.585 300.821C462.585 300.821 466.892 325.625 459.72 322.976C452.547 320.326 454.591 298.696 454.591 298.696L462.585 300.821Z" fill="#A0616A"/>
<path d="M491.136 197.566C491.136 197.566 491.25 209.105 487.074 209.705C482.898 210.307 489.444 216.437 489.444 216.437L496.893 217.999L507.614 217.158L512.353 210.667C512.353 210.667 504.002 206.461 507.614 193.36L491.136 197.566Z" fill="#A0616A"/>
<path opacity="0.1" d="M491.136 197.566C491.136 197.566 491.25 209.105 487.074 209.705C482.898 210.307 489.444 216.437 489.444 216.437L496.893 217.999L507.614 217.158L512.353 210.667C512.353 210.667 504.002 206.461 507.614 193.36L491.136 197.566Z" fill="black"/>
<path d="M471.952 295.16C471.952 295.16 466.647 307.299 470.823 345.399C470.823 345.399 469.582 358.859 470.597 361.384C471.613 363.907 479.964 398.161 479.964 398.161C479.964 398.161 490.685 400.685 492.152 393.113C492.152 393.113 490.686 382.297 490.798 380.614C490.911 378.931 488.428 360.542 488.428 360.542L493.507 324.966L497.344 357.057C497.344 357.057 497.344 366.312 498.585 368.354C499.826 370.398 498.585 411.502 498.585 411.502C498.585 411.502 495.087 417.752 500.391 417.872C505.695 417.992 510.434 417.752 510.886 413.786C511.338 409.819 511.564 405.853 512.692 403.449C513.82 401.045 515.288 373.523 514.949 363.907C514.611 354.292 522.398 304.895 519.915 299.727C517.432 294.558 471.952 295.16 471.952 295.16Z" fill="#2F2E41"/>
<path d="M496.893 201.894C489.413 201.894 483.35 195.436 483.35 187.471C483.35 179.506 489.413 173.049 496.893 173.049C504.372 173.049 510.434 179.506 510.434 187.471C510.434 195.436 504.372 201.894 496.893 201.894Z" fill="#A0616A"/>
<path d="M510.435 210.907C510.435 210.907 502.196 217.398 490.234 212.23C490.234 212.23 486.284 210.186 486.623 207.061C486.961 203.937 478.384 232.181 478.384 232.181L469.694 281.338L470.146 301.409C470.146 301.409 473.983 299.367 485.945 303.934C497.908 308.501 517.432 298.765 517.432 298.765L516.755 247.205L516.077 217.158L514.272 210.547C514.272 210.547 513.369 208.744 510.435 210.907Z" fill="#F2F2F2"/>
<path d="M490.76 202.839C490.76 202.839 488.767 202.494 486.848 205.74C484.93 208.984 480.415 211.028 480.415 211.028C480.415 211.028 469.469 211.749 467.889 217.999C466.309 224.248 462.359 232.782 460.44 248.526C458.522 264.271 454.685 289.391 454.121 291.434C453.556 293.477 454.91 299.727 453.331 301.65C451.751 303.573 464.503 303.573 464.503 303.573C464.503 303.573 465.631 293.717 466.422 293.717C467.211 293.717 466.986 300.328 466.196 305.135C465.406 309.943 471.952 305.135 471.952 305.135C471.952 305.135 477.03 283.141 481.883 263.309C486.736 243.479 489.556 232.541 488.654 228.095C487.751 223.648 485.268 210.907 487.074 209.705C488.88 208.504 490.76 202.839 490.76 202.839Z" fill="#2F2E41"/>
<path d="M507.035 202.828C507.035 202.828 509.984 204.538 517.432 210.186C524.88 215.835 529.959 220.162 529.959 220.162C529.959 220.162 532.893 222.566 534.698 236.868C536.504 251.17 540.567 288.189 538.987 292.876C537.407 297.563 536.842 300.328 537.407 303.092C537.972 305.857 525.557 305.736 525.332 305.135C525.106 304.534 525.67 293.597 525.106 293.357C524.541 293.116 521.494 299.847 520.93 305.496C520.366 311.145 513.82 315.592 512.353 315.592C510.886 315.592 503.325 283.021 503.212 260.786C503.099 238.551 505.695 219.802 507.614 217.158C509.532 214.514 507.035 202.828 507.035 202.828Z" fill="#2F2E41"/>
<path d="M487.187 399.243C487.187 399.243 486.284 396.599 483.124 397.44C479.964 398.282 477.82 395.277 477.82 395.277C477.82 395.277 476.127 395.036 477.256 397.32C478.384 399.603 479.287 401.166 479.287 401.166C479.287 401.166 472.516 417.632 476.917 421.598C481.318 425.564 486.397 423.16 486.397 423.16C486.397 423.16 491.363 419.434 491.136 409.579C491.136 409.579 491.363 406.454 494.071 401.406C496.779 396.359 498.811 388.666 495.538 387.224C492.266 385.782 491.423 385.728 491.423 385.728C491.423 385.728 492.954 393.188 488.999 395.795L487.187 399.243Z" fill="#3F3D56"/>
<path d="M508.178 417.872C508.178 417.872 510.886 412.463 506.372 411.863C501.858 411.262 497.005 410.901 497.231 413.425C497.457 415.949 498.021 419.795 498.021 419.795L497.231 422.56C497.231 422.56 497.005 429.41 496.215 430.252C495.425 431.092 491.136 438.304 500.278 438.304C509.419 438.304 512.128 437.222 511.338 434.939C510.548 432.655 510.322 421.358 510.322 421.358L508.178 417.872Z" fill="#3F3D56"/>
<path d="M501.181 175.933C501.181 175.933 494.861 177.735 491.588 178.457C488.316 179.178 488.654 177.135 488.654 177.135C488.654 177.135 484.365 177.735 484.591 177.255C484.817 176.774 482.786 174.25 485.156 171.365C487.525 168.481 486.848 166.317 486.848 166.317H488.88L489.444 165.477H492.604C492.604 165.477 494.974 164.515 501.181 165.477C507.387 166.438 515.852 166.678 516.529 170.644C517.206 174.611 520.705 179.539 519.463 181.822C518.222 184.106 511.112 193.48 510.434 197.447C509.758 201.413 506.596 202.294 506.71 199.81C506.823 197.326 509.983 188.673 507.275 188.312C504.567 187.952 499.94 180.62 501.181 175.933Z" fill="#2F2E41"/>
<path d="M51.0064 27.5975C53.2451 27.7322 55.4044 28.5283 57.242 29.8967C59.0796 31.2651 60.523 33.1516 61.4104 35.3447C64.0119 42.042 60.6623 49.9089 55.6338 54.7926C50.6053 59.6763 44.1459 62.4678 38.2771 66.137C30.3942 71.0654 23.3108 77.9068 19.3665 86.6888C15.4223 95.4708 15.0027 106.349 19.639 114.739C23.9423 122.526 31.7671 127.186 39.2299 131.485" stroke="#3F3D56" stroke-width="3.17788" stroke-miterlimit="10"/>
<path d="M44.3788 32.935C39.3028 32.935 35.1879 30.8064 35.1879 28.1807C35.1879 25.555 39.3028 23.4264 44.3788 23.4264C49.4547 23.4264 53.5697 25.555 53.5697 28.1807C53.5697 30.8064 49.4547 32.935 44.3788 32.935Z" fill="#6C63FF"/>
<path d="M37.0262 64.2571C31.9502 64.2571 27.8353 62.1286 27.8353 59.5029C27.8353 56.8772 31.9502 54.7486 37.0262 54.7486C42.1022 54.7486 46.2171 56.8772 46.2171 59.5029C46.2171 62.1286 42.1022 64.2571 37.0262 64.2571Z" fill="#6C63FF"/>
<path d="M53.8324 69.2911C48.7564 69.2911 44.6415 67.1625 44.6415 64.5368C44.6415 61.9111 48.7564 59.7825 53.8324 59.7825C58.9084 59.7825 63.0233 61.9111 63.0233 64.5368C63.0233 67.1625 58.9084 69.2911 53.8324 69.2911Z" fill="#6C63FF"/>
<path d="M27.5726 95.5793C22.4966 95.5793 18.3818 93.4507 18.3818 90.825C18.3818 88.1993 22.4966 86.0707 27.5726 86.0707C32.6486 86.0707 36.7635 88.1993 36.7635 90.825C36.7635 93.4507 32.6486 95.5793 27.5726 95.5793Z" fill="#6C63FF"/>
<path d="M9.19088 95.5793C4.11489 95.5793 -1.52588e-05 93.4507 -1.52588e-05 90.825C-1.52588e-05 88.1993 4.11489 86.0707 9.19088 86.0707C14.2668 86.0707 18.3818 88.1993 18.3818 90.825C18.3818 93.4507 14.2668 95.5793 9.19088 95.5793Z" fill="#6C63FF"/>
</g>
<defs>
<linearGradient id="paint0_linear" x1="0" y1="-2.2575e-06" x2="0" y2="431" gradientUnits="userSpaceOnUse">
<stop stop-color="#F09BB4"/>
<stop offset="1" stop-color="#E3C4F2"/>
</linearGradient>
<clipPath id="clip0">
<rect width="542" height="417" fill="white" transform="translate(0 23)"/>
</clipPath>
</defs>
</svg>
