<svg width="592" height="429" viewBox="0 0 592 429" fill="none" xmlns="http://www.w3.org/2000/svg">
<path d="M581.334 275.745C602.357 323.64 592.302 361.999 551.171 390.821C510.04 419.642 465.709 432.146 418.18 428.331C370.65 424.517 329.519 416.887 294.786 405.443C260.053 393.999 223.263 383.827 184.417 374.926C145.57 366.025 111.98 345.892 83.645 314.528C55.31 283.163 42.9706 246.712 46.6268 205.174C50.2829 163.637 55.31 119.345 61.7083 72.2977C68.1065 25.2504 99.869 4.90566 156.996 11.2634C214.123 17.6211 259.824 15.5019 294.1 4.90566C328.376 -5.69057 358.768 0.879096 385.275 24.6147C411.782 48.3502 434.404 71.0262 453.141 92.6425C471.879 114.259 492.673 138.206 515.524 164.485C538.375 190.764 560.311 227.85 581.334 275.745Z" fill="url(#paint0_linear)"/>
<path d="M433.653 401.732C430.148 415.467 417.866 424.05 417.866 424.05C417.866 424.05 411.267 410.365 414.772 396.63C418.277 382.894 430.559 374.311 430.559 374.311C430.559 374.311 437.159 387.997 433.653 401.732Z" fill="#3F3D56"/>
<path d="M428.337 398.826C418.52 408.807 417.422 424.043 417.422 424.043C417.422 424.043 432.24 423.097 442.057 413.116C451.874 403.136 452.972 387.9 452.972 387.9C452.972 387.9 438.154 388.845 428.337 398.826Z" fill="#4256E7"/>
<path d="M72.6317 349.774H91.1198L136.68 331.429C136.68 331.429 169.034 317.839 166.393 343.659C163.752 369.478 159.13 404.131 159.13 404.131C159.13 404.131 144.603 397.336 136.68 399.375C128.756 401.413 134.039 357.928 134.039 357.928C134.039 357.928 69.3303 389.862 63.3877 385.785C57.4451 381.709 56.1245 353.171 56.1245 353.171L72.6317 349.774Z" fill="#2F2E41"/>
<path opacity="0.1" d="M72.6317 349.774H91.1198L136.68 331.429C136.68 331.429 169.034 317.839 166.393 343.659C163.752 369.478 159.13 404.131 159.13 404.131C159.13 404.131 144.603 397.336 136.68 399.375C128.756 401.413 134.039 357.928 134.039 357.928C134.039 357.928 69.3303 389.862 63.3877 385.785C57.4451 381.709 56.1245 353.171 56.1245 353.171L72.6317 349.774Z" fill="black"/>
<path d="M101.76 290.195L124.134 323.275L176.297 368.12C176.297 368.12 224.498 379.67 217.895 387.824C211.292 395.977 171.015 379.67 171.015 379.67C171.015 379.67 110.929 334.826 108.948 331.429C106.967 328.031 85.1773 296.097 85.1773 296.097L101.76 290.195Z" fill="#A0616A"/>
<path opacity="0.1" d="M101.76 290.195L124.134 323.275L176.297 368.12C176.297 368.12 224.498 379.67 217.895 387.824C211.292 395.977 171.015 379.67 171.015 379.67C171.015 379.67 110.929 334.826 108.948 331.429C106.967 328.031 85.1773 296.097 85.1773 296.097L101.76 290.195Z" fill="black"/>
<path d="M88.4787 263.482L103.005 292.699C103.005 292.699 99.7036 306.968 94.4213 308.327C89.139 309.686 66.6891 290.661 66.6891 290.661L88.4787 263.482Z" fill="#D0CDE1"/>
<path opacity="0.1" d="M88.4787 263.482L103.005 292.699C103.005 292.699 99.7036 306.968 94.4213 308.327C89.139 309.686 66.6891 290.661 66.6891 290.661L88.4787 263.482Z" fill="black"/>
<path d="M265.694 334.647L269.985 352.861C270.033 353.064 270.025 353.277 269.963 353.476L250.499 416.069C250.422 416.317 250.264 416.53 250.053 416.673C249.842 416.816 249.589 416.88 249.337 416.855C249.086 416.829 248.85 416.716 248.67 416.533C248.49 416.35 248.376 416.11 248.347 415.851L245.655 391.467C245.637 391.305 245.653 391.141 245.702 390.986L263.568 334.562C263.643 334.327 263.79 334.123 263.987 333.981C264.185 333.84 264.422 333.768 264.662 333.778C264.903 333.787 265.133 333.877 265.32 334.034C265.506 334.191 265.637 334.406 265.694 334.647Z" fill="#2F2E41"/>
<path d="M264.116 336.185L268.077 351.813L250.909 408.887L246.948 391.221L264.116 336.185Z" fill="#F2F2F2"/>
<path d="M177.618 421.117C178.278 423.156 246.288 420.438 246.948 419.759C247.524 418.908 248.011 417.997 248.401 417.041C249.021 415.682 249.589 414.323 249.589 414.323L246.948 392.322L179.599 389.862C179.599 389.862 177.915 408.507 177.571 417.041C177.486 419.195 177.486 420.71 177.618 421.117Z" fill="#2F2E41"/>
<path opacity="0.1" d="M238.364 395.298L239.685 414.323H209.972V395.298H238.364Z" fill="black"/>
<path opacity="0.1" d="M200.068 401.413L200.245 401.377L199.407 409.567H182.9V401.413H200.068Z" fill="black"/>
<path opacity="0.1" d="M177.618 421.117C178.278 423.156 246.288 420.438 246.948 419.759C247.524 418.908 248.011 417.997 248.401 417.041H177.571C177.486 419.195 177.486 420.71 177.618 421.117Z" fill="black"/>
<path d="M98.383 253.97C114.793 253.97 128.096 240.281 128.096 223.394C128.096 206.508 114.793 192.819 98.383 192.819C81.973 192.819 68.67 206.508 68.67 223.394C68.67 240.281 81.973 253.97 98.383 253.97Z" fill="#A0616A"/>
<path d="M96.4022 250.573C96.4022 250.573 86.4978 268.239 84.517 277.751C82.5361 287.264 54.804 258.726 54.804 258.726L51.1724 248.874C51.1724 248.874 77.2538 236.304 75.2729 226.112C73.292 215.92 96.4022 250.573 96.4022 250.573Z" fill="#A0616A"/>
<path d="M101.684 303.571L128.756 340.262L193.465 389.862C193.465 389.862 240.345 400.054 229.78 407.528C219.216 415.002 188.843 400.734 188.843 400.734C188.843 400.734 123.474 364.722 109.608 349.774C95.7419 334.826 69.9906 309.686 69.9906 309.686L101.684 303.571Z" fill="#A0616A"/>
<path d="M65.3686 360.645L73.2921 373.555L120.58 358.246C130.956 354.887 142.333 356.123 151.536 362.089C159.79 367.44 165.072 375.933 153.187 388.503C129.417 413.643 113.57 400.054 113.57 400.054C113.57 400.054 33.6747 438.783 20.4689 419.759C7.26317 400.734 6.60291 391.221 6.60291 391.221C6.60291 391.221 57.4451 358.607 65.3686 360.645Z" fill="#2F2E41"/>
<path d="M164.412 405.49C164.412 405.49 185.541 419.759 160.45 426.553C135.359 433.348 116.871 423.835 116.871 423.835C116.871 423.835 95.0816 423.835 95.0816 412.284C95.0816 400.734 102.345 399.375 102.345 399.375L124.795 402.772C124.795 402.772 151.866 395.298 164.412 405.49Z" fill="#D0CDE1"/>
<path d="M122.758 215.703C124.78 216.631 126.786 217.729 128.984 217.998C131.183 218.267 133.687 217.477 134.727 215.466C135.289 214.38 135.353 213.102 135.38 211.871C135.459 208.14 135.197 204.107 132.899 201.219C131.437 199.382 129.302 198.223 127.789 196.43C126.704 195.146 125.983 193.589 125.205 192.087C122.262 186.397 117.903 180.929 111.846 179.289C109.316 178.604 106.663 178.638 104.048 178.676L88.7934 178.897C86.3249 178.933 83.8183 178.975 81.4552 179.71C76.5453 181.238 72.9703 185.486 69.6962 189.55C67.2467 192.59 64.7907 195.661 62.9523 199.127C60.3166 204.186 58.9839 209.855 59.0811 215.594C59.0607 217.065 59.2453 218.533 59.6295 219.951C60.0789 221.251 60.6356 222.51 61.2937 223.712C64.1544 229.494 65.8529 236.716 62.6313 242.294C68.2276 239.941 73.7648 236.857 77.4565 231.931C79.108 229.727 80.4031 227.147 82.604 225.53C84.8049 223.913 88.3911 223.773 89.8032 226.146C90.2886 227.106 90.5385 228.174 90.5313 229.256C90.6344 231.037 90.6316 232.888 91.3656 234.505C92.0996 236.121 93.8481 237.426 95.5174 236.942C98.3922 236.109 98.1169 231.569 100.331 229.506C102.013 227.94 104.607 228.239 106.768 227.528C109.285 226.7 111.173 224.456 112.249 221.972C113.067 220.084 113.056 215.144 114.603 214.121C116.544 212.839 120.959 214.877 122.758 215.703Z" fill="#2F2E41"/>
<path d="M48.8137 245.651C50.1504 245.284 51.5577 245.288 52.8926 245.662C57.1311 246.833 66.6327 249.933 68.67 254.649C71.3112 260.765 80.5552 270.277 80.5552 270.277C80.5552 270.277 93.1007 283.187 90.4595 292.02C87.8184 300.853 77.914 311.045 77.914 311.045C77.914 311.045 80.5552 353.171 67.3494 364.043C54.1436 374.914 48.8613 367.44 48.8613 377.632C48.8613 387.824 7.92347 419.759 0 400.054C0 400.054 3.96173 363.363 2.64116 350.454C1.33962 337.73 3.245 258.346 48.8137 245.651Z" fill="#D0CDE1"/>
<path d="M69.9906 262.803C69.9906 262.803 110.268 293.379 103.005 306.289C103.005 306.289 78.5743 318.519 73.292 317.839C68.0097 317.16 47.5408 293.379 42.2585 291.34C36.9762 289.302 34.335 252.611 69.9906 262.803Z" fill="#D0CDE1"/>
<path d="M249.943 195.189C267.958 195.189 282.562 180.161 282.562 161.623C282.562 143.085 267.958 128.057 249.943 128.057C231.928 128.057 217.324 143.085 217.324 161.623C217.324 180.161 231.928 195.189 249.943 195.189Z" fill="#F2F2F2"/>
<path d="M519.358 118.03H336.567V78.6705H519.358V118.03ZM337.372 117.202H518.553V79.4991H337.372V117.202Z" fill="#3F3D56"/>
<path d="M506.071 86.5424H324.086V125.074H506.071V86.5424Z" fill="#4256E7"/>
<path d="M209.044 49.7722C210.601 49.7722 211.863 48.4737 211.863 46.8719C211.863 45.2702 210.601 43.9717 209.044 43.9717C207.488 43.9717 206.226 45.2702 206.226 46.8719C206.226 48.4737 207.488 49.7722 209.044 49.7722Z" fill="#4256E7"/>
<path d="M218.707 49.7722C220.264 49.7722 221.526 48.4737 221.526 46.8719C221.526 45.2702 220.264 43.9717 218.707 43.9717C217.151 43.9717 215.889 45.2702 215.889 46.8719C215.889 48.4737 217.151 49.7722 218.707 49.7722Z" fill="#4256E7"/>
<path d="M228.37 49.7722C229.927 49.7722 231.189 48.4737 231.189 46.8719C231.189 45.2702 229.927 43.9717 228.37 43.9717C226.814 43.9717 225.552 45.2702 225.552 46.8719C225.552 48.4737 226.814 49.7722 228.37 49.7722Z" fill="#4256E7"/>
<path d="M540 266.044H200.992V39H540V266.044ZM201.797 265.215H539.195V39.8286H201.797V265.215Z" fill="#3F3D56"/>
<path d="M539.597 51.5682H201.395V52.3968H539.597V51.5682Z" fill="#3F3D56"/>
<path d="M209.85 48.9435C209.213 48.9435 208.59 48.7491 208.06 48.3849C207.53 48.0207 207.118 47.5031 206.874 46.8974C206.63 46.2918 206.566 45.6253 206.691 44.9824C206.815 44.3394 207.122 43.7488 207.572 43.2853C208.023 42.8218 208.596 42.5061 209.221 42.3782C209.846 42.2503 210.494 42.3159 211.082 42.5668C211.671 42.8177 212.174 43.2425 212.528 43.7876C212.882 44.3326 213.071 44.9735 213.071 45.629C213.07 46.5078 212.73 47.3502 212.126 47.9716C211.522 48.593 210.704 48.9425 209.85 48.9435ZM209.85 43.1431C209.372 43.1431 208.905 43.2889 208.508 43.5621C208.11 43.8352 207.801 44.2235 207.618 44.6777C207.435 45.1319 207.387 45.6318 207.48 46.114C207.574 46.5962 207.804 47.0391 208.141 47.3868C208.479 47.7344 208.91 47.9712 209.378 48.0671C209.847 48.163 210.333 48.1138 210.774 47.9257C211.216 47.7375 211.593 47.4189 211.858 47.0101C212.124 46.6013 212.265 46.1207 212.265 45.629C212.265 44.9699 212.01 44.3381 211.557 43.8721C211.104 43.406 210.49 43.1439 209.85 43.1431V43.1431Z" fill="#3F3D56"/>
<path d="M219.513 48.9435C218.876 48.9435 218.253 48.7491 217.723 48.3849C217.193 48.0207 216.781 47.5031 216.537 46.8974C216.293 46.2918 216.229 45.6253 216.354 44.9824C216.478 44.3394 216.785 43.7488 217.235 43.2853C217.685 42.8218 218.259 42.5061 218.884 42.3782C219.509 42.2503 220.157 42.3159 220.745 42.5668C221.334 42.8177 221.837 43.2425 222.191 43.7876C222.545 44.3326 222.734 44.9735 222.734 45.629C222.733 46.5078 222.393 47.3502 221.789 47.9716C221.185 48.593 220.367 48.9425 219.513 48.9435V48.9435ZM219.513 43.1431C219.035 43.1431 218.568 43.2889 218.17 43.5621C217.773 43.8352 217.464 44.2235 217.281 44.6777C217.098 45.1319 217.05 45.6318 217.143 46.114C217.236 46.5962 217.467 47.0391 217.804 47.3868C218.142 47.7344 218.573 47.9712 219.041 48.0671C219.51 48.163 219.996 48.1138 220.437 47.9257C220.878 47.7375 221.256 47.4189 221.521 47.0101C221.787 46.6013 221.928 46.1207 221.928 45.629C221.928 44.9699 221.673 44.3381 221.22 43.8721C220.767 43.406 220.153 43.1439 219.513 43.1431V43.1431Z" fill="#3F3D56"/>
<path d="M229.176 48.9435C228.538 48.9435 227.916 48.7491 227.386 48.3849C226.856 48.0207 226.444 47.5031 226.2 46.8974C225.956 46.2918 225.892 45.6253 226.016 44.9824C226.141 44.3394 226.447 43.7488 226.898 43.2853C227.348 42.8218 227.922 42.5061 228.547 42.3782C229.172 42.2503 229.82 42.3159 230.408 42.5668C230.997 42.8177 231.5 43.2425 231.854 43.7876C232.208 44.3326 232.396 44.9735 232.396 45.629C232.396 46.5077 232.056 47.3502 231.452 47.9716C230.848 48.593 230.029 48.9425 229.176 48.9435V48.9435ZM229.176 43.1431C228.698 43.1431 228.231 43.2889 227.833 43.5621C227.436 43.8352 227.127 44.2235 226.944 44.6777C226.761 45.1319 226.713 45.6318 226.806 46.114C226.899 46.5962 227.129 47.0391 227.467 47.3868C227.805 47.7344 228.236 47.9712 228.704 48.0671C229.173 48.163 229.659 48.1138 230.1 47.9257C230.541 47.7375 230.919 47.4189 231.184 47.0101C231.45 46.6013 231.591 46.1207 231.591 45.629C231.591 44.9699 231.336 44.3381 230.883 43.8721C230.43 43.406 229.816 43.1439 229.176 43.1431V43.1431Z" fill="#3F3D56"/>
<path d="M307.979 51.9825H307.174V265.951H307.979V51.9825Z" fill="#3F3D56"/>
<path d="M404.812 157.183H345.626V165.469H404.812V157.183Z" fill="#F2F2F2"/>
<path d="M497.817 157.183H438.632V165.469H497.817V157.183Z" fill="#F2F2F2"/>
<path d="M408.435 161.74H348.445V152.625H408.435V161.74ZM349.25 160.912H407.63V153.454H349.25V160.912Z" fill="#3F3D56"/>
<path d="M404.812 221.401H345.626V229.688H404.812V221.401Z" fill="#F2F2F2"/>
<path d="M408.435 225.959H348.445V216.844H408.435V225.959ZM349.25 225.13H407.63V217.673H349.25V225.13Z" fill="#3F3D56"/>
<path d="M498.019 188.463H345.827V196.75H498.019V188.463Z" fill="#F2F2F2"/>
<path d="M501.642 193.85H348.646V184.735H501.642V193.85ZM349.451 193.021H500.837V185.563H349.451V193.021Z" fill="#3F3D56"/>
<path d="M501.441 161.74H441.45V152.625H501.441V161.74ZM442.256 160.912H500.636V153.454H442.256V160.912Z" fill="#3F3D56"/>
<path d="M255.463 186.411C248.912 186.411 242.509 184.412 237.062 180.667C231.615 176.922 227.37 171.599 224.863 165.371C222.357 159.143 221.701 152.29 222.979 145.679C224.257 139.068 227.411 132.995 232.043 128.228C236.675 123.462 242.577 120.216 249.001 118.901C255.426 117.586 262.086 118.26 268.138 120.84C274.19 123.42 279.362 127.788 283.002 133.393C286.641 138.998 288.584 145.587 288.584 152.328C288.574 161.364 285.081 170.027 278.872 176.417C272.663 182.806 264.244 186.4 255.463 186.411ZM255.463 119.279C249.111 119.279 242.901 121.217 237.62 124.848C232.338 128.48 228.222 133.642 225.791 139.681C223.36 145.72 222.724 152.365 223.963 158.776C225.202 165.187 228.261 171.076 232.753 175.698C237.244 180.32 242.967 183.468 249.197 184.743C255.427 186.018 261.885 185.364 267.754 182.862C273.622 180.361 278.638 176.125 282.167 170.69C285.696 165.255 287.58 158.865 287.58 152.328C287.57 143.566 284.183 135.165 278.162 128.97C272.141 122.774 263.978 119.288 255.463 119.279Z" fill="#3F3D56"/>
<path d="M517.418 423.438H375.4V424.471H517.418V423.438Z" fill="#3F3D56"/>
<defs>
<linearGradient id="paint0_linear" x1="46" y1="0" x2="46" y2="429" gradientUnits="userSpaceOnUse">
<stop stop-color="#F3A2B0"/>
<stop offset="1" stop-color="#E1CCF3"/>
</linearGradient>
</defs>
</svg>
